<?xml version="1.0" standalone="no"?><!-- Generator: Gravit.io --><svg xmlns="http://www.w3.org/2000/svg" xmlns:xlink="http://www.w3.org/1999/xlink" style="isolation:isolate" viewBox="0 0 1000 1000" width="1000" height="1000"><defs><clipPath id="_clipPath_l1E1PDyOdOC4Q6PUBUJb94ODytZA62Ir"><rect width="1000" height="1000"/></clipPath></defs><g clip-path="url(#_clipPath_l1E1PDyOdOC4Q6PUBUJb94ODytZA62Ir)"><rect width="1000" height="1000" style="fill:rgb(59,51,85)"/><g><path d=" M 844.408 485.37 L 786.845 455.124 C 788.883 429.858 748.293 412.846 732.961 370.886 C 688.961 240 501.983 187.529 394.975 245.921 C 307.179 290.856 261.088 368.19 249.961 467.726 C 267.25 554.09 289.208 663.516 313.552 763.08 C 336.535 857.08 361.646 942.289 386.961 991 L 747.961 989 C 693.001 916.134 667.691 858.516 673.934 802.565 C 701.925 755.184 727.919 735.042 764.866 729.22 C 790.777 725.137 822.075 728.096 863.227 733.641 L 895.329 697.093 L 921.897 683.231 C 961.553 644.007 960.826 586.888 955.106 526.959 L 844.408 485.37 Z " fill="rgb(115,82,144)"/><path d=" M 629.961 69 C 636.421 84.009 651.763 116.976 648.815 128 C 646.753 137.537 628.867 208.24 606.961 244.059 C 626.321 273.419 653.783 295.884 682.961 295 C 688.694 277.365 699.827 152.179 696.379 143 C 691.991 136.796 660.815 88.854 629.961 69 Z " fill="rgb(255,111,89)"/><path d=" M 568.961 231.67 C 557.607 154.591 511.927 78.785 428.961 77 C 448.263 111.2 461.345 183.228 456.649 223.865 C 491.947 251.613 530.333 245.331 568.961 231.67 Z " fill="rgb(255,111,89)"/><path d=" M 343.961 281.208 C 332.987 365.604 299.051 407.312 256.89 423 L 239.813 370.885 L 103.91 331.719 L 56.948 324.258 C 6.659 270.357 21.383 218.372 19.961 170.305 C 46.249 204.978 70.551 227.7 95.961 236.537 C 137.812 236.539 144.827 233.511 194.986 227.274 C 218.621 223.335 239.277 228.958 256.89 244.059 C 274.263 253.027 305.373 267.192 343.961 281.208 Z " fill="rgb(255,111,89)"/><path d=" M 307.766 743.614 C 292.193 764.848 266.401 812.881 263.961 851 C 277.316 838.561 306.814 817.863 330.424 823.763 C 328.454 792.881 324.779 765.573 307.766 743.614 Z " fill="rgb(255,111,89)"/><path d=" M 266.959 552 C 249.977 572.125 209.558 601.135 204.53 639 C 218.701 627.498 262.808 625.508 285.961 633 C 286.097 602.056 282.439 575.066 266.959 552 Z " fill="rgb(255,111,89)"/><path d=" M 879.37 499 C 873.313 476.714 870.352 444.078 842.229 426 C 840.31 440.83 834.464 460.345 823.961 475 C 842.471 485.6 859.077 495.16 879.37 499 Z " fill="rgb(255,111,89)"/><path d=" M 930.961 518 C 922.651 503.108 925.699 479.946 902.325 472 C 903.592 482.969 902.878 493.627 897.961 506 C 908.437 511.29 916.582 514.685 930.961 518 Z " fill="rgb(255,111,89)"/><path d=" M 914.961 556 C 918.956 571.551 918.976 584.904 914.961 596" fill="none" vector-effect="non-scaling-stroke" stroke-width="20" stroke="rgb(59,51,85)" stroke-linejoin="miter" stroke-linecap="square" stroke-miterlimit="3"/></g></g></svg>